<?xml version="1.0" standalone="no"?>
<!DOCTYPE svg PUBLIC "-//W3C//DTD SVG 20010904//EN"
 "http://www.w3.org/TR/2001/REC-SVG-20010904/DTD/svg10.dtd">
<svg version="1.0" xmlns="http://www.w3.org/2000/svg"
 width="800.000000pt" height="800.000000pt" viewBox="0 0 800.000000 800.000000"
 preserveAspectRatio="xMidYMid meet">
<metadata>
Created by potrace 1.14, written by Peter Selinger 2001-2017
</metadata>
<g transform="translate(0.000000,800.000000) scale(0.100000,-0.100000)"
fill="#000000" stroke="none">
<path d="M3510 6815 c0 -9 -9 -15 -23 -15 -20 0 -28 -14 -62 -107 -22 -60 -40
-110 -40 -113 0 -3 -10 -30 -22 -60 -22 -56 -35 -93 -34 -97 0 -2 -8 -23 -19
-47 -10 -24 -16 -47 -13 -50 4 -3 2 -6 -4 -6 -6 0 -14 -16 -17 -35 -4 -19 -11
-35 -17 -35 -6 0 -7 -4 -4 -10 3 -5 0 -20 -7 -32 -6 -13 -13 -30 -15 -39 -1
-9 -8 -29 -14 -45 -7 -16 -13 -33 -15 -39 -9 -33 -30 -81 -39 -87 -5 -4 -7 -8
-3 -8 4 0 -4 -30 -18 -67 -14 -38 -32 -86 -39 -108 -17 -50 -44 -125 -52 -145
-3 -8 -7 -21 -9 -29 -1 -8 -6 -17 -11 -20 -4 -3 -8 -10 -9 -16 0 -17 -16 -69
-24 -80 -3 -5 -12 -29 -20 -52 -7 -24 -17 -43 -22 -43 -5 0 -6 -4 -3 -10 3 -5
-5 -38 -18 -72 -39 -100 -40 -102 -43 -113 -1 -5 -15 -41 -29 -80 -14 -38 -33
-90 -41 -115 -9 -25 -22 -59 -30 -77 -8 -17 -14 -38 -14 -47 0 -9 -5 -16 -10
-16 -6 0 -9 -3 -8 -7 4 -15 -27 -103 -36 -103 -5 0 -7 -3 -4 -6 6 -5 -26 -107
-40 -129 -4 -5 -8 -19 -9 -29 -2 -11 -8 -25 -14 -33 -6 -7 -8 -13 -5 -13 4 0
1 -10 -6 -22 -7 -13 -13 -25 -13 -28 -2 -12 -17 -58 -30 -90 -18 -47 -27 -73
-31 -85 -1 -5 -15 -41 -29 -80 -15 -38 -31 -86 -37 -105 -6 -19 -15 -41 -20
-47 -6 -7 -7 -13 -3 -13 4 0 2 -6 -4 -13 -6 -8 -8 -17 -4 -20 3 -4 1 -7 -5 -7
-7 0 -11 -3 -10 -7 2 -10 -23 -95 -32 -108 -8 -10 -34 -85 -35 -97 0 -3 -3
-10 -7 -14 -5 -4 -8 -13 -8 -19 0 -7 -7 -29 -15 -49 -8 -20 -15 -38 -15 -41 0
-3 -7 -19 -15 -35 -8 -16 -15 -32 -15 -35 -1 -6 -8 -28 -17 -52 -8 -23 -8 -24
-17 -55 -5 -16 -12 -28 -18 -28 -5 0 -6 -4 -3 -10 3 -6 3 -16 -2 -22 -4 -7 -8
-17 -9 -23 -2 -9 -35 -103 -51 -145 -4 -8 -7 -17 -7 -20 -1 -3 -4 -9 -7 -15
-4 -5 -14 -35 -24 -65 -10 -30 -22 -61 -28 -67 -5 -7 -6 -13 -1 -13 4 0 3 -5
-4 -12 -7 -7 -12 -20 -12 -30 0 -10 -4 -26 -9 -36 -14 -27 -145 -380 -155
-417 -2 -5 -8 -21 -13 -35 -6 -14 -18 -45 -26 -70 -9 -25 -30 -83 -47 -130
-17 -47 -32 -91 -32 -97 -1 -7 -5 -13 -10 -13 -4 0 -7 -3 -6 -8 2 -9 -23 -94
-32 -107 -4 -5 -19 -44 -33 -85 -14 -41 -31 -88 -38 -105 -7 -16 -13 -34 -15
-40 -4 -12 -67 -191 -79 -220 -10 -28 -56 -153 -60 -165 -1 -3 -5 -17 -9 -32
-5 -16 -11 -28 -15 -28 -4 0 -8 -11 -9 -24 -1 -13 -11 -45 -22 -70 -28 -66
-26 -76 8 -67 15 5 37 5 49 0 13 -5 25 -4 28 2 4 5 11 6 18 2 15 -9 117 -10
117 0 0 5 5 5 12 1 17 -11 58 -11 58 -1 0 6 5 6 13 0 14 -11 27 -11 45 0 6 5
12 4 12 0 0 -5 15 -8 33 -6 40 5 44 5 85 0 17 -3 32 0 32 5 0 7 5 7 12 1 12
-8 36 -9 63 -3 25 6 46 -1 39 -12 -5 -9 -2 -9 9 1 9 7 17 10 17 5 0 -5 5 -2
10 6 6 9 10 10 10 3 0 -11 34 -10 67 2 7 2 17 -4 22 -13 7 -12 10 -13 11 -3 0
11 3 11 17 0 11 -10 14 -10 9 -1 -7 11 6 17 29 12 12 -2 98 -2 105 0 15 4 80
4 80 0 0 -4 -6 -12 -12 -20 -8 -9 -5 -8 7 2 11 8 28 14 38 13 9 -2 17 1 17 6
0 5 10 5 23 0 19 -6 87 -8 95 -1 2 2 44 3 63 1 5 -1 7 -7 3 -13 -5 -9 -2 -9 9
1 9 7 17 10 17 6 0 -4 7 -2 15 5 9 8 15 9 15 2 0 -6 8 -9 18 -7 23 4 72 7 95
6 12 -1 16 -5 11 -13 -5 -9 -2 -9 9 1 9 7 17 10 17 5 0 -4 5 -3 12 4 9 9 15 7
25 -6 8 -9 12 -12 9 -6 -3 7 1 14 9 18 8 3 15 15 15 26 0 12 4 18 10 15 6 -3
7 1 4 9 -3 9 -3 24 1 34 5 9 9 22 10 27 3 14 34 107 42 125 3 8 7 21 9 28 1 8
6 21 10 30 4 9 8 22 8 27 5 40 51 163 59 158 6 -3 7 -1 3 6 -7 11 15 94 36
134 5 11 7 21 4 24 -3 3 3 22 14 43 11 21 16 40 13 44 -4 3 0 6 8 6 11 0 11 2
-1 10 -10 6 -11 10 -3 10 7 0 12 3 11 8 -2 9 24 95 32 102 3 3 6 14 8 25 4 28
7 38 14 50 3 6 9 25 13 42 8 40 17 46 69 45 22 0 70 -1 106 -1 36 -1 92 0 126
1 33 1 66 -2 72 -6 7 -4 12 -4 12 1 0 4 349 8 775 8 l774 0 17 -43 c8 -23 17
-48 18 -55 1 -6 4 -16 8 -22 3 -5 13 -32 21 -60 9 -27 43 -129 76 -225 34 -96
63 -183 66 -194 7 -28 107 -319 117 -338 4 -9 16 -17 26 -17 17 -1 40 -1 67
-1 8 0 22 0 30 0 8 -1 40 -1 70 -1 30 0 62 0 70 1 8 0 22 0 30 0 8 0 22 0 30
0 8 0 22 0 30 0 8 0 22 0 30 0 8 0 22 0 30 0 8 0 22 0 30 0 8 -1 40 -1 70 -1
30 0 62 0 70 1 8 0 22 0 30 0 8 0 22 0 30 0 8 0 22 0 30 0 8 0 22 0 30 0 28 0
50 0 100 0 28 1 59 0 70 0 11 -1 27 -1 35 -1 83 3 141 1 150 -4 5 -3 10 -2 10
4 0 6 11 6 30 1 17 -5 32 -5 35 0 3 5 15 6 29 0 12 -4 29 -4 36 0 8 5 18 6 23
3 6 -3 30 -5 56 -4 25 0 61 1 79 1 30 1 32 3 27 23 -9 31 -104 298 -115 322
-5 11 -23 61 -40 110 -17 50 -40 114 -51 143 -49 133 -59 161 -78 217 -12 33
-26 69 -30 80 -9 19 -65 175 -67 185 0 3 -4 12 -7 20 -3 8 -16 42 -27 75 -12
33 -27 76 -35 95 -8 19 -28 76 -45 125 -17 50 -35 99 -40 110 -5 11 -19 49
-31 85 -12 36 -25 70 -29 75 -4 6 -10 21 -13 35 -5 25 -69 206 -86 245 -5 11
-28 74 -51 140 -22 66 -45 129 -50 140 -5 11 -52 142 -105 290 -54 149 -112
311 -130 360 -19 50 -63 171 -99 270 -35 99 -92 257 -126 350 -34 94 -75 206
-90 250 -16 44 -43 118 -60 165 -17 47 -38 105 -47 130 -8 25 -35 99 -60 165
-24 66 -46 127 -48 135 -5 19 -64 179 -75 205 -5 11 -18 47 -29 80 -23 67 -37
107 -76 210 -14 39 -28 75 -29 80 -2 6 -6 17 -9 25 -9 20 -88 242 -91 255 -2
6 -7 21 -13 35 -5 14 -21 55 -34 93 l-24 67 -762 0 c-672 0 -763 -2 -763 -15z
m782 -1512 c0 -10 1 -24 1 -30 -1 -7 4 -13 9 -13 6 0 8 -11 6 -25 -3 -13 -1
-22 4 -19 8 5 16 -9 22 -38 2 -7 8 -24 13 -38 6 -14 8 -29 6 -34 -3 -4 0 -11
6 -15 11 -7 20 -33 25 -71 1 -9 5 -20 8 -26 6 -8 72 -195 82 -229 2 -5 6 -17
9 -25 19 -48 45 -130 40 -130 -3 0 -1 -6 4 -12 8 -11 22 -49 27 -78 1 -3 4 -9
8 -15 5 -8 29 -87 32 -105 1 -3 4 -9 8 -15 3 -5 10 -26 16 -45 6 -19 47 -141
92 -270 44 -129 82 -239 83 -245 2 -5 16 -48 32 -95 16 -47 30 -87 30 -90 1
-3 4 -12 8 -20 11 -30 67 -202 67 -208 0 -9 -994 -7 -1009 2 -6 4 -11 4 -11
-1 0 -9 -229 -8 -238 2 -4 3 0 10 7 14 8 5 15 23 16 40 3 41 25 91 39 91 6 0
5 4 -3 9 -9 6 -10 14 -5 22 9 14 10 19 13 40 0 5 6 7 13 3 7 -4 8 -3 4 5 -4 7
-4 20 0 29 7 18 10 27 12 50 1 7 7 10 14 6 7 -4 8 -3 4 4 -4 6 -1 31 5 54 7
24 12 47 10 52 -1 5 6 5 16 2 14 -6 15 -5 6 5 -8 8 -9 18 -2 31 5 10 6 18 2
18 -4 0 0 7 10 14 11 9 14 17 8 21 -8 4 -7 15 3 33 14 30 30 83 28 95 -1 4 3
7 10 7 6 0 9 3 5 6 -3 3 1 25 10 47 8 23 16 49 17 57 5 33 19 70 26 70 4 0 7
8 7 18 -1 27 44 161 59 177 10 9 10 15 3 17 -9 3 -9 9 -1 23 6 11 23 61 37
110 15 50 31 99 36 110 6 12 12 30 14 40 2 11 4 21 5 23 2 1 4 7 5 12 1 6 4
12 5 15 4 8 7 17 15 53 4 18 11 35 16 38 4 2 6 11 3 18 -3 7 2 16 11 20 9 3
14 10 10 15 -10 17 18 101 35 102 8 0 10 3 4 5 -9 4 -8 18 2 56 7 28 17 54 21
57 4 3 9 13 10 21 3 26 12 60 18 70 7 11 16 47 17 68 2 19 18 14 20 -5z"/>
<path d="M4259 5188 c-5 -18 -6 -38 -1 -34 7 8 12 36 6 36 -2 0 -4 -1 -5 -2z"/>
<path d="M4296 5138 c3 -4 11 -5 19 -1 21 7 19 12 -4 10 -11 0 -18 -5 -15 -9z"/>
<path d="M4275 5021 c-3 -5 -2 -12 3 -15 5 -3 9 1 9 9 0 17 -3 19 -12 6z"/>
<path d="M4230 4979 c0 -5 5 -7 10 -4 6 3 10 8 10 11 0 2 -4 4 -10 4 -5 0 -10
-5 -10 -11z"/>
<path d="M4195 4940 c-3 -5 -1 -10 4 -10 6 0 11 5 11 10 0 6 -2 10 -4 10 -3 0
-8 -4 -11 -10z"/>
<path d="M4179 4908 c-5 -18 -6 -38 -1 -34 7 8 12 36 6 36 -2 0 -4 -1 -5 -2z"/>
<path d="M4340 4806 c0 -2 8 -10 18 -17 15 -13 16 -12 3 4 -13 16 -21 21 -21
13z"/>
<path d="M4139 4788 c-5 -18 -6 -38 -1 -34 7 8 12 36 6 36 -2 0 -4 -1 -5 -2z"/>
<path d="M4180 4720 c-8 -5 -10 -10 -5 -10 6 0 17 5 25 10 8 5 11 10 5 10 -5
0 -17 -5 -25 -10z"/>
<path d="M4135 4661 c-3 -5 -2 -12 3 -15 5 -3 9 1 9 9 0 17 -3 19 -12 6z"/>
<path d="M4075 4619 c-3 -4 2 -6 10 -5 21 3 28 13 10 13 -9 0 -18 -4 -20 -8z"/>
<path d="M4053 4575 c0 -8 4 -12 9 -9 5 3 6 10 3 15 -9 13 -12 11 -12 -6z"/>
<path d="M4153 4505 c0 -8 4 -12 9 -9 5 3 6 10 3 15 -9 13 -12 11 -12 -6z"/>
<path d="M4055 4431 c-3 -5 -2 -12 3 -15 5 -3 9 1 9 9 0 17 -3 19 -12 6z"/>
<path d="M4039 4353 c-13 -17 -13 -17 6 -3 11 8 22 16 24 17 2 2 0 3 -6 3 -6
0 -17 -8 -24 -17z"/>
<path d="M4310 4340 c0 -5 5 -10 11 -10 5 0 7 5 4 10 -3 6 -8 10 -11 10 -2 0
-4 -4 -4 -10z"/>
<path d="M3970 4300 c0 -5 5 -10 11 -10 5 0 7 5 4 10 -3 6 -8 10 -11 10 -2 0
-4 -4 -4 -10z"/>
<path d="M4076 4202 c-3 -5 1 -9 9 -9 8 0 12 4 9 9 -3 4 -7 8 -9 8 -2 0 -6 -4
-9 -8z"/>
<path d="M3935 4180 c3 -5 8 -10 11 -10 2 0 4 5 4 10 0 6 -5 10 -11 10 -5 0
-7 -4 -4 -10z"/>
<path d="M3935 4139 c-3 -4 2 -6 10 -5 21 3 28 13 10 13 -9 0 -18 -4 -20 -8z"/>
<path d="M3910 4079 c0 -5 5 -7 10 -4 6 3 10 8 10 11 0 2 -4 4 -10 4 -5 0 -10
-5 -10 -11z"/>
<path d="M3960 4080 c-8 -5 -10 -10 -5 -10 6 0 17 5 25 10 8 5 11 10 5 10 -5
0 -17 -5 -25 -10z"/>
<path d="M3894 4036 c1 -8 5 -18 8 -22 4 -3 5 1 4 10 -1 8 -5 18 -8 22 -4 3
-5 -1 -4 -10z"/>
<path d="M3899 3988 c-5 -18 -6 -38 -1 -34 7 8 12 36 6 36 -2 0 -4 -1 -5 -2z"/>
<path d="M3880 3840 c-9 -6 -10 -10 -3 -10 6 0 15 5 18 10 8 12 4 12 -15 0z"/>
<path d="M3857 3795 c-4 -8 -3 -16 1 -19 4 -3 9 4 9 15 2 23 -3 25 -10 4z"/>
<path d="M3810 3720 c0 -5 5 -10 11 -10 5 0 7 5 4 10 -3 6 -8 10 -11 10 -2 0
-4 -4 -4 -10z"/>
<path d="M3774 3656 c1 -8 5 -18 8 -22 4 -3 5 1 4 10 -1 8 -5 18 -8 22 -4 3
-5 -1 -4 -10z"/>
<path d="M3836 3642 c-3 -5 1 -9 9 -9 8 0 12 4 9 9 -3 4 -7 8 -9 8 -2 0 -6 -4
-9 -8z"/>
<path d="M3790 3580 c0 -5 5 -10 11 -10 5 0 7 5 4 10 -3 6 -8 10 -11 10 -2 0
-4 -4 -4 -10z"/>
<path d="M3805 3520 c-3 -6 1 -7 9 -4 18 7 21 14 7 14 -6 0 -13 -4 -16 -10z"/>
<path d="M3733 3463 c4 -3 1 -13 -6 -22 -11 -14 -10 -14 5 -2 16 12 16 31 1
31 -4 0 -3 -3 0 -7z"/>
<path d="M3334 2276 c1 -8 5 -18 8 -22 4 -3 5 1 4 10 -1 8 -5 18 -8 22 -4 3
-5 -1 -4 -10z"/>
<path d="M3294 2142 c4 -3 14 -7 22 -8 9 -1 13 0 10 4 -4 3 -14 7 -22 8 -9 1
-13 0 -10 -4z"/>
<path d="M3301 2076 c-9 -11 -9 -16 1 -22 7 -4 10 -4 6 1 -4 4 -3 14 3 22 6 7
9 13 6 13 -2 0 -10 -6 -16 -14z"/>
<path d="M3254 2036 c1 -8 5 -18 8 -22 4 -3 5 1 4 10 -1 8 -5 18 -8 22 -4 3
-5 -1 -4 -10z"/>
<path d="M3270 1939 c0 -5 5 -7 10 -4 6 3 10 8 10 11 0 2 -4 4 -10 4 -5 0 -10
-5 -10 -11z"/>
<path d="M3174 1776 c1 -8 5 -18 8 -22 4 -3 5 1 4 10 -1 8 -5 18 -8 22 -4 3
-5 -1 -4 -10z"/>
<path d="M3115 1579 c-3 -4 2 -6 10 -5 21 3 28 13 10 13 -9 0 -18 -4 -20 -8z"/>
<path d="M3166 1562 c-3 -5 1 -9 9 -9 8 0 12 4 9 9 -3 4 -7 8 -9 8 -2 0 -6 -4
-9 -8z"/>
<path d="M3093 1511 c0 -11 5 -18 9 -15 4 3 5 11 1 19 -7 21 -12 19 -10 -4z"/>
<path d="M3130 1486 c0 -2 7 -7 16 -10 8 -3 12 -2 9 4 -6 10 -25 14 -25 6z"/>
<path d="M3093 1455 c0 -8 4 -12 9 -9 5 3 6 10 3 15 -9 13 -12 11 -12 -6z"/>
<path d="M3146 1438 c3 -5 10 -6 15 -3 13 9 11 12 -6 12 -8 0 -12 -4 -9 -9z"/>
<path d="M3075 1420 c-3 -5 -1 -10 4 -10 6 0 11 5 11 10 0 6 -2 10 -4 10 -3 0
-8 -4 -11 -10z"/>
<path d="M3054 1376 c1 -8 5 -18 8 -22 4 -3 5 1 4 10 -1 8 -5 18 -8 22 -4 3
-5 -1 -4 -10z"/>
<path d="M2230 1342 c0 -5 7 -9 15 -9 8 0 12 4 9 9 -3 4 -9 8 -15 8 -5 0 -9
-4 -9 -8z"/>
<path d="M2340 1346 c0 -2 8 -10 18 -17 15 -13 16 -12 3 4 -13 16 -21 21 -21
13z"/>
<path d="M2440 1335 c-7 -9 -11 -17 -9 -20 3 -2 10 5 17 15 14 24 10 26 -8 5z"/>
<path d="M2475 1343 c3 -3 0 -11 -5 -18 -7 -8 -5 -12 4 -12 14 0 16 22 3 32
-4 3 -5 2 -2 -2z"/>
<path d="M2680 1335 c-7 -9 -11 -17 -9 -20 3 -2 10 5 17 15 14 24 10 26 -8 5z"/>
<path d="M2710 1346 c0 -2 7 -7 16 -10 8 -3 12 -2 9 4 -6 10 -25 14 -25 6z"/>
<path d="M1955 1331 c-3 -5 -2 -12 3 -15 5 -3 9 1 9 9 0 17 -3 19 -12 6z"/>
<path d="M2529 1323 c-13 -16 -12 -17 4 -4 9 7 17 15 17 17 0 8 -8 3 -21 -13z"/>
<path d="M1910 1319 c0 -5 5 -7 10 -4 6 3 10 8 10 11 0 2 -4 4 -10 4 -5 0 -10
-5 -10 -11z"/>
<path d="M2286 1322 c-3 -5 1 -9 9 -9 8 0 12 4 9 9 -3 4 -7 8 -9 8 -2 0 -6 -4
-9 -8z"/>
<path d="M3019 1328 c-5 -18 -6 -38 -1 -34 7 8 12 36 6 36 -2 0 -4 -1 -5 -2z"/>
<path d="M2553 1305 c0 -8 4 -12 9 -9 5 3 6 10 3 15 -9 13 -12 11 -12 -6z"/>
<path d="M1870 1299 c0 -5 5 -7 10 -4 6 3 10 8 10 11 0 2 -4 4 -10 4 -5 0 -10
-5 -10 -11z"/>
<path d="M2015 1300 c3 -5 8 -10 11 -10 2 0 4 5 4 10 0 6 -5 10 -11 10 -5 0
-7 -4 -4 -10z"/>
<path d="M2626 1298 c3 -4 9 -8 15 -8 5 0 9 4 9 8 0 5 -7 9 -15 9 -8 0 -12 -4
-9 -9z"/>
<path d="M2456 1287 c3 -10 9 -15 12 -12 3 3 0 11 -7 18 -10 9 -11 8 -5 -6z"/>
<path d="M2595 1291 c-3 -5 -2 -12 3 -15 5 -3 9 1 9 9 0 17 -3 19 -12 6z"/>
<path d="M3113 1285 c0 -8 4 -12 9 -9 5 3 6 10 3 15 -9 13 -12 11 -12 -6z"/>
<path d="M1915 1280 c-3 -5 -1 -10 4 -10 6 0 11 5 11 10 0 6 -2 10 -4 10 -3 0
-8 -4 -11 -10z"/>
<path d="M1960 1280 c-9 -6 -10 -10 -3 -10 6 0 15 5 18 10 8 12 4 12 -15 0z"/>
<path d="M2336 1273 c-6 -14 -5 -15 5 -6 7 7 10 15 7 18 -3 3 -9 -2 -12 -12z"/>
<path d="M2367 1279 c7 -7 15 -10 18 -7 3 3 -2 9 -12 12 -14 6 -15 5 -6 -5z"/>
<path d="M1840 1260 c-12 -7 -10 -9 7 -7 12 0 19 5 17 9 -6 10 -6 10 -24 -2z"/>
<path d="M2710 1266 c0 -2 7 -7 16 -10 8 -3 12 -2 9 4 -6 10 -25 14 -25 6z"/>
<path d="M2979 1268 c-5 -18 -6 -38 -1 -34 7 8 12 36 6 36 -2 0 -4 -1 -5 -2z"/>
<path d="M2453 1247 c0 -7 9 -14 19 -14 10 -1 18 3 18 9 0 6 -3 8 -7 5 -3 -4
-11 -2 -18 3 -8 7 -12 6 -12 -3z"/>
<path d="M1795 1240 c-3 -5 -1 -10 4 -10 6 0 11 5 11 10 0 6 -2 10 -4 10 -3 0
-8 -4 -11 -10z"/>
<path d="M1899 1248 c-5 -18 -6 -38 -1 -34 7 8 12 36 6 36 -2 0 -4 -1 -5 -2z"/>
<path d="M1956 1233 c-6 -14 -5 -15 5 -6 7 7 10 15 7 18 -3 3 -9 -2 -12 -12z"/>
<path d="M2216 1233 c-6 -14 -5 -15 5 -6 7 7 10 15 7 18 -3 3 -9 -2 -12 -12z"/>
<path d="M2276 1242 c-3 -5 1 -9 9 -9 8 0 12 4 9 9 -3 4 -7 8 -9 8 -2 0 -6 -4
-9 -8z"/>
<path d="M2335 1240 c-5 -8 42 -7 49 1 3 3 -6 5 -20 5 -14 0 -27 -3 -29 -6z"/>
<path d="M2506 1238 c3 -5 10 -6 15 -3 13 9 11 12 -6 12 -8 0 -12 -4 -9 -9z"/>
<path d="M2913 1235 c0 -8 4 -12 9 -9 5 3 6 10 3 15 -9 13 -12 11 -12 -6z"/>
<path d="M2393 1215 c0 -8 4 -12 9 -9 5 3 6 10 3 15 -9 13 -12 11 -12 -6z"/>
<path d="M2594 1216 c1 -8 5 -18 8 -22 4 -3 5 1 4 10 -1 8 -5 18 -8 22 -4 3
-5 -1 -4 -10z"/>
<path d="M2627 1219 c7 -7 15 -10 18 -7 3 3 -2 9 -12 12 -14 6 -15 5 -6 -5z"/>
<path d="M2720 1220 c-9 -6 -10 -10 -3 -10 6 0 15 5 18 10 8 12 4 12 -15 0z"/>
<path d="M2295 1209 c-4 -6 -5 -12 -2 -15 2 -3 7 2 10 11 7 17 1 20 -8 4z"/>
<path d="M2250 1199 c0 -5 5 -7 10 -4 6 3 10 8 10 11 0 2 -4 4 -10 4 -5 0 -10
-5 -10 -11z"/>
<path d="M2437 1191 c-10 -14 -10 -14 4 -4 9 7 18 10 21 7 3 -3 8 -1 12 4 9
16 -24 9 -37 -7z"/>
<path d="M2556 1202 c-3 -5 1 -9 9 -9 8 0 12 4 9 9 -3 4 -7 8 -9 8 -2 0 -6 -4
-9 -8z"/>
<path d="M2654 1198 c-4 -7 -4 -10 1 -6 4 4 15 2 24 -5 14 -11 14 -10 2 6 -16
20 -18 21 -27 5z"/>
<path d="M1970 1179 c0 -5 5 -7 10 -4 6 3 10 8 10 11 0 2 -4 4 -10 4 -5 0 -10
-5 -10 -11z"/>
<path d="M2515 1180 c3 -5 8 -10 11 -10 2 0 4 5 4 10 0 6 -5 10 -11 10 -5 0
-7 -4 -4 -10z"/>
<path d="M2914 1182 c4 -3 14 -7 22 -8 9 -1 13 0 10 4 -4 3 -14 7 -22 8 -9 1
-13 0 -10 -4z"/>
<path d="M2976 1178 c3 -5 10 -6 15 -3 13 9 11 12 -6 12 -8 0 -12 -4 -9 -9z"/>
<path d="M2255 1169 c-4 -6 -5 -12 -2 -15 2 -3 7 2 10 11 7 17 1 20 -8 4z"/>
<path d="M2140 1166 c0 -2 8 -10 18 -17 15 -13 16 -12 3 4 -13 16 -21 21 -21
13z"/>
<path d="M2650 1161 c0 -6 4 -13 10 -16 6 -3 7 1 4 9 -7 18 -14 21 -14 7z"/>
<path d="M1836 1147 c3 -10 9 -15 12 -12 3 3 0 11 -7 18 -10 9 -11 8 -5 -6z"/>
<path d="M1896 1142 c-3 -5 1 -9 9 -9 8 0 12 4 9 9 -3 4 -7 8 -9 8 -2 0 -6 -4
-9 -8z"/>
<path d="M1970 1140 c0 -5 5 -10 11 -10 5 0 7 5 4 10 -3 6 -8 10 -11 10 -2 0
-4 -4 -4 -10z"/>
<path d="M2815 1140 c3 -5 8 -10 11 -10 2 0 4 5 4 10 0 6 -5 10 -11 10 -5 0
-7 -4 -4 -10z"/>
<path d="M2279 1138 c-5 -18 -6 -38 -1 -34 7 8 12 36 6 36 -2 0 -4 -1 -5 -2z"/>
<path d="M2156 1118 c3 -5 10 -6 15 -3 13 9 11 12 -6 12 -8 0 -12 -4 -9 -9z"/>
<path d="M2955 1120 c3 -5 8 -10 11 -10 2 0 4 5 4 10 0 6 -5 10 -11 10 -5 0
-7 -4 -4 -10z"/>
<path d="M1870 1101 c0 -6 4 -13 10 -16 6 -3 7 1 4 9 -7 18 -14 21 -14 7z"/>
<path d="M2470 1106 c0 -2 7 -7 16 -10 8 -3 12 -2 9 4 -6 10 -25 14 -25 6z"/>
<path d="M2870 1105 c0 -7 30 -13 34 -7 3 4 -4 9 -15 9 -10 1 -19 0 -19 -2z"/>
<path d="M2633 1085 c0 -8 4 -12 9 -9 5 3 6 10 3 15 -9 13 -12 11 -12 -6z"/>
<path d="M1979 1088 c-5 -18 -6 -38 -1 -34 7 8 12 36 6 36 -2 0 -4 -1 -5 -2z"/>
<path d="M2599 1073 c-13 -16 -12 -17 4 -4 16 13 21 21 13 21 -2 0 -10 -8 -17
-17z"/>
<path d="M1893 1049 c-2 -23 3 -25 10 -4 4 8 3 16 -1 19 -4 3 -9 -4 -9 -15z"/>
<path d="M2135 1060 c-3 -5 -1 -10 4 -10 6 0 11 5 11 10 0 6 -2 10 -4 10 -3 0
-8 -4 -11 -10z"/>
<path d="M2856 1058 c3 -4 11 -5 19 -1 21 7 19 12 -4 10 -11 0 -18 -5 -15 -9z"/>
<path d="M1934 1016 c1 -8 5 -18 8 -22 4 -3 5 1 4 10 -1 8 -5 18 -8 22 -4 3
-5 -1 -4 -10z"/>
<path d="M2095 1020 c3 -5 8 -10 11 -10 2 0 4 5 4 10 0 6 -5 10 -11 10 -5 0
-7 -4 -4 -10z"/>
<path d="M2135 1020 c3 -5 8 -10 11 -10 2 0 4 5 4 10 0 6 -5 10 -11 10 -5 0
-7 -4 -4 -10z"/>
<path d="M2490 1019 c0 -5 5 -7 10 -4 6 3 10 8 10 11 0 2 -4 4 -10 4 -5 0 -10
-5 -10 -11z"/>
<path d="M2730 1019 c0 -5 5 -7 10 -4 6 3 10 8 10 11 0 2 -4 4 -10 4 -5 0 -10
-5 -10 -11z"/>
<path d="M2387 999 c7 -7 15 -10 18 -7 3 3 -2 9 -12 12 -14 6 -15 5 -6 -5z"/>
<path d="M2595 1000 c3 -5 8 -10 11 -10 2 0 4 5 4 10 0 6 -5 10 -11 10 -5 0
-7 -4 -4 -10z"/>
<path d="M2010 980 c0 -5 5 -10 11 -10 5 0 7 5 4 10 -3 6 -8 10 -11 10 -2 0
-4 -4 -4 -10z"/>
<path d="M2096 982 c-3 -4 4 -9 15 -9 23 -2 25 3 4 10 -8 4 -16 3 -19 -1z"/>
<path d="M2694 982 c4 -3 14 -7 22 -8 9 -1 13 0 10 4 -4 3 -14 7 -22 8 -9 1
-13 0 -10 -4z"/>
<path d="M2816 982 c-3 -5 1 -9 9 -9 8 0 12 4 9 9 -3 4 -7 8 -9 8 -2 0 -6 -4
-9 -8z"/>
<path d="M1829 963 c-13 -16 -12 -17 4 -4 16 13 21 21 13 21 -2 0 -10 -8 -17
-17z"/>
<path d="M2257 955 c-4 -8 -3 -16 1 -19 4 -3 9 4 9 15 2 23 -3 25 -10 4z"/>
<path d="M2740 960 c-9 -6 -10 -10 -3 -10 6 0 15 5 18 10 8 12 4 12 -15 0z"/>
<path d="M2613 945 c0 -8 4 -12 9 -9 5 3 6 10 3 15 -9 13 -12 11 -12 -6z"/>
<path d="M1915 940 c-3 -5 -1 -10 4 -10 6 0 11 5 11 10 0 6 -2 10 -4 10 -3 0
-8 -4 -11 -10z"/>
<path d="M2170 939 c0 -5 5 -7 10 -4 6 3 10 8 10 11 0 2 -4 4 -10 4 -5 0 -10
-5 -10 -11z"/>
<path d="M2216 942 c-3 -5 1 -9 9 -9 8 0 12 4 9 9 -3 4 -7 8 -9 8 -2 0 -6 -4
-9 -8z"/>
<path d="M2387 919 c7 -7 15 -10 18 -7 3 3 -2 9 -12 12 -14 6 -15 5 -6 -5z"/>
<path d="M2459 928 c-5 -18 -6 -38 -1 -34 7 8 12 36 6 36 -2 0 -4 -1 -5 -2z"/>
<path d="M2046 902 c-3 -5 1 -9 9 -9 8 0 12 4 9 9 -3 4 -7 8 -9 8 -2 0 -6 -4
-9 -8z"/>
<path d="M2335 899 c-3 -4 2 -6 10 -5 21 3 28 13 10 13 -9 0 -18 -4 -20 -8z"/>
<path d="M2613 895 c0 -8 4 -12 9 -9 5 3 6 10 3 15 -9 13 -12 11 -12 -6z"/>
<path d="M2590 860 c0 -5 5 -10 11 -10 5 0 7 5 4 10 -3 6 -8 10 -11 10 -2 0
-4 -4 -4 -10z"/>
<path d="M2475 841 c-3 -5 -2 -12 3 -15 5 -3 9 1 9 9 0 17 -3 19 -12 6z"/>
<path d="M2650 846 c0 -2 7 -7 16 -10 8 -3 12 -2 9 4 -6 10 -25 14 -25 6z"/>
<path d="M2240 800 c-9 -6 -10 -10 -3 -10 6 0 15 5 18 10 8 12 4 12 -15 0z"/>
</g>
</svg>
